<svg xmlns="http://www.w3.org/2000/svg" version="1.1" xmlns:xlink="http://www.w3.org/1999/xlink" width="322.54" height="270.37"><svg xmlns="http://www.w3.org/2000/svg" viewBox="0 0 322.54 270.37">
  <defs>
    <style>
      .cls-1 {
        fill: #3c35f2;
      }
    </style>
  </defs>
  <g>
    <path class="cls-1" d="M262.15,0c-1.29,10.12-2.85,20.24-4.62,30.5-1.77,10.26-3.67,20.52-5.77,30.84-2.04,10.26-4.28,20.52-6.79,30.77-2.45,10.26-5.16,20.38-7.95,30.3L208.07,0h-65.96c-1.83,9.85-3.74,19.77-5.84,29.75-2.04,10.05-4.35,20.24-6.93,30.57-2.51,10.39-5.37,20.92-8.42,31.66-2.31,7.95-4.82,16.03-7.47,24.32-.88,2.79-1.77,5.57-2.72,8.42-4.01-10.19-7.74-20.52-11.28-30.98-3.46-10.53-6.73-20.92-9.78-31.38-3.12-10.39-5.91-20.86-8.56-31.32-2.58-10.53-4.82-20.86-6.73-31.04H12.23c3.06,14.33,6.59,28.67,10.66,43,4.01,14.33,8.63,29.21,13.72,44.63,5.16,15.35,11.01,31.45,17.59,48.3,6.59,16.78,13.93,34.78,22.08,53.8-2.24,4.76-4.82,8.97-7.81,12.7-2.92,3.74-6.25,6.93-9.85,9.51-3.6,2.58-7.47,4.62-11.55,5.98-4.08,1.36-8.29,2.04-12.64,2.04-4.76,0-9.51-.68-14.33-2.04-4.75-1.36-9.24-3.6-13.38-6.66l-6.73,49.52c4.82,2.99,10.53,5.3,17.12,7.06,6.59,1.7,13.38,2.51,20.52,2.51,11,0,21.6-1.9,31.86-5.84,10.26-3.87,19.97-9.65,29.14-17.32,9.17-7.61,17.8-17.05,25.81-28.33,7.68-10.67,14.61-22.82,21.13-36.61.34-.75.75-1.49,1.09-2.31.54-1.22,1.16-2.45,1.7-3.67,5.43-11.75,10.6-24.39,15.56-37.91,5.43-14.88,10.53-30.16,15.28-45.79.27-.88.54-1.7.75-2.58l21.67,92.25h74.86c11-30.3,20.31-60.66,27.85-91.1,7.47-30.43,13.59-60.8,18.21-91.16h-60.39Z"></path>
  </g>
</svg><style>@media (prefers-color-scheme: light) { :root { filter: none; } }
@media (prefers-color-scheme: dark) { :root { filter: none; } }
</style></svg>